<svg width="56" height="55" viewBox="0 0 56 55" fill="none" xmlns="http://www.w3.org/2000/svg">
<path opacity="0.4" d="M31.5038 19.1423C30.1921 20.0775 28.5867 20.6276 26.8529 20.6276C22.4231 20.6276 18.832 17.0366 18.832 12.6068C18.832 8.17698 22.4231 4.58594 26.8529 4.58594C29.7243 4.58594 32.2433 6.09482 33.6603 8.36293M46.332 14.8984C46.332 19.3282 42.741 22.9193 38.3112 22.9193C33.8814 22.9193 30.2904 19.3282 30.2904 14.8984C30.2904 10.4686 33.8814 6.8776 38.3112 6.8776C42.741 6.8776 46.332 10.4686 46.332 14.8984Z" stroke="#316DF0" stroke-width="4.58333" stroke-linecap="round" stroke-linejoin="round"/>
<path d="M14.2487 46.0306H20.2306C21.0106 46.0306 21.7857 46.1234 22.5418 46.3088L28.8624 47.8449C30.2338 48.179 31.6626 48.2113 33.0484 47.9423L40.0368 46.5826C41.8828 46.2231 43.5811 45.3389 44.9119 44.0444L49.8564 39.2346C51.2683 37.8635 51.2683 35.6383 49.8564 34.2649C48.5852 33.0281 46.572 32.889 45.1337 33.9377L39.3713 38.142C38.5461 38.7451 37.5419 39.0699 36.5093 39.0699H30.9446H34.4866C36.4829 39.0699 38.1001 37.4966 38.1001 35.5547V34.8516C38.1001 33.2392 36.9719 31.8332 35.3643 31.4434L29.8976 30.1138C29.0079 29.8981 28.0968 29.7891 27.1808 29.7891C24.9698 29.7891 20.9676 31.6196 20.9676 31.6196L14.2487 34.4295M5.08203 33.4557V46.7474C5.08203 48.031 5.08203 48.6726 5.3318 49.1628C5.55152 49.5941 5.9021 49.9445 6.3333 50.1643C6.82351 50.4141 7.46525 50.4141 8.7487 50.4141H10.582C11.8655 50.4141 12.5072 50.4141 12.9974 50.1643C13.4286 49.9445 13.7792 49.5941 13.9989 49.1628C14.2487 48.6726 14.2487 48.031 14.2487 46.7474V33.4557C14.2487 32.1722 14.2487 31.5305 13.9989 31.0403C13.7792 30.609 13.4286 30.2586 12.9974 30.0389C12.5072 29.7891 11.8655 29.7891 10.582 29.7891H8.7487C7.46525 29.7891 6.82351 29.7891 6.3333 30.0389C5.9021 30.2586 5.55152 30.609 5.3318 31.0403C5.08203 31.5305 5.08203 32.1722 5.08203 33.4557Z" stroke="#316DF0" stroke-width="4.58333" stroke-linecap="round" stroke-linejoin="round"/>
</svg>
