<svg width="56" height="55" viewBox="0 0 56 55" fill="none" xmlns="http://www.w3.org/2000/svg">
<path d="M32.5827 25.2109H18.8327M23.416 34.3776H18.8327M37.166 16.0443H18.8327M46.3327 22.9193V15.5859C46.3327 11.7356 46.3327 9.8104 45.5834 8.33975C44.9242 7.04614 43.8725 5.9944 42.5789 5.33527C41.1082 4.58594 39.183 4.58594 35.3327 4.58594H20.666C16.8157 4.58594 14.8905 4.58594 13.4198 5.33527C12.1262 5.9944 11.0745 7.04614 10.4153 8.33975C9.66602 9.8104 9.66602 11.7356 9.66602 15.5859V39.4193C9.66602 43.2696 9.66602 45.1948 10.4153 46.6655C11.0745 47.9591 12.1262 49.0108 13.4198 49.6699C14.8905 50.4193 16.8157 50.4193 20.666 50.4193H29.1452" stroke="#316DF0" stroke-width="4.58333" stroke-linecap="round" stroke-linejoin="round"/>
<path d="M41.75 48.1276C41.75 48.1276 48.625 44.8507 48.625 39.9354V34.2009L43.6117 32.4095C42.4072 31.9781 41.09 31.9781 39.8855 32.4095L34.875 34.2009V39.9354C34.875 44.8507 41.75 48.1276 41.75 48.1276Z" stroke="#316DF0" stroke-opacity="0.4" stroke-width="4.58333" stroke-linecap="round" stroke-linejoin="round"/>
</svg>
